<?xml version="1.0" encoding="UTF-8"?>
<svg id="logo" xmlns="http://www.w3.org/2000/svg" viewBox="0 0 780 330">
  <defs>
    <style>
      .cls-1 {
        fill: #fff;
        stroke-width: 0px;
      }
    </style>
  </defs>
  <g id="WHITE">
    <g id="Sub">
      <path id="icon" class="cls-1" d="m285.26,112.36c-.47-5.88-5.15-11.18-11.66-14.02-34.27-14.99-68.95-29.07-95.81-41.57-5.1-2.36-10.84-2.36-15.94,0-26.85,12.5-61.53,26.58-95.8,41.57-6.51,2.84-11.19,8.14-11.66,14.02-2.54,30.94,7.09,76.45,25.4,107.55,2.82,4.77,48.89,34.45,75.36,50.92,8.95,5.57,20.29,5.56,29.23-.04,11.56-7.23,26.8-16.88,40.57-25.89,1.84-1.21,2.96-3.27,2.96-5.47v-51.16c0-2.78,1.54-5.33,4.01-6.62l17.4-9.1c2.84-1.49,6.25.58,6.25,3.79v42.39c0,2.33,3.07,3.17,4.26,1.18h0c18.31-31.09,27.94-76.6,25.4-107.55h0Zm-37.92-1.91c-22.45,11.26-46.77,22.93-70.23,34.75-4.26,2.15-10.32,2.15-14.58,0-23.46-11.82-47.78-23.49-70.23-34.75-3.47-1.74-2.96-6.02.83-7.71,24.6-11.07,48.98-21.67,70.18-31.57,4.1-1.91,8.91-1.91,13.01,0,21.21,9.9,45.59,20.5,70.18,31.57,4.4,1.96,4.85,5.69.83,7.71h.01Z"/>
      <g id="logo-2" data-name="logo">
        <g>
          <path class="cls-1" d="m405.95,171.02c-2.97,6.94-6.34,6.94-11.54,6.94h-29.82c-5.2,0-9.24-1.36-11.54-6.94-2.3-5.59-33.37-81-41.52-100.78-1.39-3.39,1.57-6.92,5.81-6.92h21.45c2.69,0,5.07,1.48,5.87,3.66l29.9,71.23c1.87,4.6,8.4,4.59,10.25-.02l29.53-71.21c.8-2.17,3.18-3.66,5.87-3.66h21.45c4.23,0,7.2,3.54,5.81,6.92-8.13,19.75-38.55,93.83-41.51,100.78h0Z"/>
          <g>
            <path class="cls-1" d="m542.75,87.63h51.7c1.96,0,3.55,1.59,3.55,3.54v8.07c0,1.96-1.59,3.54-3.55,3.54h-42.07c-1.96,0-3.55,1.59-3.55,3.54v8.07c0,1.96,1.59,3.54,3.55,3.54h37.02c1.96,0,3.55,1.59,3.55,3.54v8.07c0,1.96-1.59,3.54-3.55,3.54h-37.02c-1.96,0-3.55,1.59-3.55,3.54v4.67c0,1.96,1.59,3.54,3.55,3.54h42.07c1.96,0,3.55,1.59,3.55,3.54v8.07c0,1.96-1.59,3.54-3.55,3.54h-62.28c-1.96,0-3.55-1.59-3.55-3.54v-54.72c0-7.8,6.32-14.12,14.12-14.12h0Z"/>
            <path class="cls-1" d="m521.36,159.98h-12.47c-1.26,0-2.41-.71-2.97-1.84l-12.64-23.23c-.56-1.13-1.71-1.84-2.97-1.84h-13.22c-1.83,0-3.32,1.49-3.32,3.32v20.27c0,1.83-1.49,3.32-3.32,3.32h-13.57c-1.83,0-3.32-1.49-3.32-3.32v-65.71c0-1.83,1.49-3.32,3.32-3.32h13.57c1.83,0,3.32,1.49,3.32,3.32v23.66c0,1.83,1.49,3.32,3.32,3.32h12.75c1.28,0,1.81-.74,2.36-1.89l13.72-26.52c.55-1.15,1.72-1.89,2.99-1.89h12.67c2.46,0,4.06,2.58,2.98,4.78l-15.52,31.56c-.47.96-.45,2.09.06,3.04l15.17,28.08c1.19,2.21-.41,4.89-2.92,4.89h0Z"/>
            <path class="cls-1" d="m605.95,87.63h66.35c1.47,0,2.66,1.19,2.66,2.66v9.82c0,1.47-1.19,2.66-2.66,2.66h-20.41c-1.47,0-2.66,1.19-2.66,2.66v51.88c0,1.47-1.19,2.66-2.66,2.66h-14.88c-1.47,0-2.66-1.19-2.66-2.66v-51.87c0-1.47-1.19-2.66-2.66-2.66h-20.41c-1.47,0-2.66-1.19-2.66-2.66v-9.82c0-1.47,1.19-2.66,2.66-2.66h0Z"/>
          </g>
        </g>
        <g>
          <path class="cls-1" d="m670.76,194.34h51.7c1.96,0,3.55,1.59,3.55,3.54v8.07c0,1.96-1.59,3.54-3.55,3.54h-42.07c-1.96,0-3.55,1.59-3.55,3.54v8.07c0,1.96,1.59,3.54,3.55,3.54h37.02c1.96,0,3.55,1.59,3.55,3.54v8.07c0,1.96-1.59,3.54-3.55,3.54h-37.02c-1.96,0-3.55,1.59-3.55,3.54v4.67c0,1.96,1.59,3.54,3.55,3.54h42.07c1.96,0,3.55,1.59,3.55,3.54v8.07c0,1.96-1.59,3.54-3.55,3.54h-62.27c-1.96,0-3.55-1.59-3.55-3.54v-54.69c0-7.8,6.32-14.11,14.12-14.11v-.03Z"/>
          <path class="cls-1" d="m568.76,266.68h-49.45c-8.91,0-16.13-7.22-16.13-16.13v-50.67c0-3.07,2.49-5.55,5.55-5.55h60.97c3.07,0,5.55,2.49,5.55,5.55v60.3c0,3.59-2.91,6.49-6.5,6.49Zm-19.26-57.2h-20.56c-3.07,0-5.55,2.49-5.55,5.55v30.94c0,3.07,2.49,5.55,5.55,5.55h20.56c3.07,0,5.55-2.49,5.55-5.55v-30.94c0-3.07-2.49-5.55-5.55-5.55h0Z"/>
          <path class="cls-1" d="m647.05,266.68h-14.51c-1.21,0-2.3-.73-2.76-1.85l-9.53-23.2c-.46-1.12-1.55-1.85-2.76-1.85h-13.03c-1.65,0-2.99,1.34-2.99,2.99v20.93c0,1.65-1.34,2.99-2.99,2.99h-14.24c-1.65,0-2.99-1.34-2.99-2.99v-66.38c0-1.65,1.34-2.99,2.99-2.99h56.84c5.27,0,9.54,4.27,9.54,9.53v26.38c0,5.27-4.27,9.53-9.54,9.53h0c-.1,0-.17.1-.14.19l8.46,23.34c.59,1.64-.62,3.37-2.36,3.37h0Zm-19.61-57.2h-22.98c-1.65,0-2.99,1.34-2.99,2.99v9.18c0,1.65,1.34,2.99,2.99,2.99h22.98c1.65,0,2.99-1.34,2.99-2.99v-9.18c0-1.65-1.34-2.99-2.99-2.99Z"/>
          <path class="cls-1" d="m416.68,266.69h-63.73c-1.56,0-2.82-1.26-2.82-2.82v-10.85c0-1.56,1.26-2.82,2.82-2.82h43.52c1.56,0,2.82-1.26,2.82-2.82v-4.79c0-1.56-1.26-2.82-2.82-2.82h-34.13c-6.74,0-12.21-5.47-12.21-12.2v-21.03c0-6.74,5.47-12.2,12.21-12.2h54.34c1.56,0,2.82,1.26,2.82,2.82v9.52c0,1.56-1.26,2.82-2.82,2.82h-46.2c-.08,0-.08,15.15,0,15.15h35.62c7.4,0,13.39,5.99,13.39,13.39v25.84c0,1.56-1.26,2.82-2.82,2.82h0Z"/>
          <path class="cls-1" d="m428.16,194.34h66.35c1.47,0,2.66,1.19,2.66,2.66v9.82c0,1.47-1.19,2.66-2.66,2.66h-20.41c-1.47,0-2.66,1.19-2.66,2.66v51.88c0,1.47-1.19,2.66-2.66,2.66h-14.88c-1.47,0-2.66-1.19-2.66-2.66v-51.88c0-1.47-1.19-2.66-2.66-2.66h-20.41c-1.47,0-2.66-1.19-2.66-2.66v-9.82c0-1.47,1.19-2.66,2.66-2.66h-.01Z"/>
        </g>
      </g>
    </g>
  </g>
</svg>