<?xml version="1.0" encoding="UTF-8"?>
<svg id="logo" xmlns="http://www.w3.org/2000/svg" viewBox="0 0 1130 330">
  <defs>
    <style>
      .cls-1 {
        fill: #fff;
        stroke-width: 0px;
      }
    </style>
  </defs>
  <g id="WHITE">
    <g id="Main">
      <path id="icon" class="cls-1" d="m285.19,112.36c-.47-5.88-5.15-11.18-11.66-14.02-34.25-14.98-68.92-29.07-95.77-41.57-5.1-2.36-10.84-2.36-15.93,0-26.85,12.5-61.52,26.58-95.77,41.57-6.51,2.84-11.19,8.14-11.66,14.02-2.54,30.95,7.09,76.45,25.39,107.55,2.82,4.77,48.87,34.45,75.33,50.92,8.95,5.57,20.28,5.56,29.22-.03,11.56-7.23,26.79-16.89,40.56-25.89,1.85-1.21,2.96-3.26,2.96-5.47v-51.17c0-2.78,1.54-5.33,4.01-6.62l17.4-9.1c2.85-1.49,6.25.58,6.25,3.79v42.39c0,2.33,3.06,3.18,4.26,1.18,18.3-31.1,27.93-76.6,25.39-107.55m-37.9-1.91c-22.44,11.26-46.76,22.93-70.21,34.76-4.26,2.15-10.32,2.15-14.58,0-23.45-11.82-47.77-23.49-70.21-34.76-3.46-1.74-2.96-6.02.83-7.71,24.59-11.06,48.96-21.67,70.16-31.56,4.09-1.9,8.91-1.9,13.01,0,21.2,9.9,45.57,20.5,70.16,31.56,4.4,1.97,4.85,5.7.83,7.71"/>
      <g id="logo-2" data-name="logo">
        <path class="cls-1" d="m405.83,212.21c-2.97,6.94-6.34,6.94-11.54,6.94h-29.81c-5.2,0-9.24-1.36-11.54-6.94-2.3-5.59-33.36-81-41.5-100.78-1.39-3.39,1.57-6.93,5.81-6.93h21.44c2.69,0,5.07,1.48,5.87,3.66l29.89,71.23c1.87,4.6,8.4,4.59,10.25-.02l29.52-71.21c.8-2.17,3.18-3.66,5.87-3.66h21.44c4.23,0,7.2,3.54,5.81,6.92-8.13,19.75-38.53,93.84-41.5,100.78"/>
        <path class="cls-1" d="m542.59,128.83h51.68c1.96,0,3.54,1.59,3.54,3.54v8.07c0,1.96-1.59,3.54-3.54,3.54h-42.05c-1.96,0-3.54,1.59-3.54,3.54v8.07c0,1.96,1.59,3.54,3.54,3.54h37c1.96,0,3.54,1.59,3.54,3.54v8.06c0,1.96-1.59,3.54-3.54,3.54h-37c-1.96,0-3.54,1.59-3.54,3.54v4.67c0,1.96,1.59,3.54,3.54,3.54h42.05c1.96,0,3.54,1.59,3.54,3.54v8.07c0,1.96-1.59,3.54-3.54,3.54h-62.25c-1.96,0-3.54-1.59-3.54-3.54v-54.69c0-7.8,6.32-14.11,14.12-14.11"/>
        <path class="cls-1" d="m521.21,201.18h-12.47c-1.26,0-2.41-.71-2.97-1.84l-12.63-23.23c-.56-1.13-1.71-1.84-2.97-1.84h-13.22c-1.83,0-3.32,1.49-3.32,3.32v20.27c0,1.83-1.48,3.32-3.32,3.32h-13.57c-1.83,0-3.32-1.48-3.32-3.32v-65.72c0-1.83,1.48-3.32,3.32-3.32h13.57c1.83,0,3.32,1.49,3.32,3.32v23.67c0,1.83,1.49,3.32,3.32,3.32h12.75c1.28,0,1.81-.73,2.36-1.89l13.72-26.52c.55-1.15,1.72-1.89,2.99-1.89h12.66c2.46,0,4.06,2.58,2.98,4.78l-15.52,31.56c-.47.96-.45,2.1.06,3.04l15.17,28.08c1.19,2.21-.41,4.89-2.92,4.89"/>
        <path class="cls-1" d="m605.77,128.83h66.33c1.47,0,2.66,1.19,2.66,2.66v9.83c0,1.47-1.19,2.66-2.66,2.66h-20.4c-1.47,0-2.66,1.19-2.66,2.66v51.88c0,1.47-1.19,2.66-2.66,2.66h-14.88c-1.47,0-2.66-1.19-2.66-2.66v-51.88c0-1.47-1.19-2.66-2.66-2.66h-20.4c-1.47,0-2.66-1.19-2.66-2.66v-9.83c0-1.47,1.19-2.66,2.66-2.66"/>
        <path class="cls-1" d="m1020.78,128.83h51.68c1.96,0,3.54,1.59,3.54,3.54v8.06c0,1.96-1.59,3.54-3.54,3.54h-42.05c-1.96,0-3.54,1.59-3.54,3.54v8.07c0,1.96,1.59,3.54,3.54,3.54h37c1.96,0,3.54,1.59,3.54,3.54v8.06c0,1.96-1.59,3.54-3.54,3.54h-37c-1.96,0-3.54,1.59-3.54,3.54v4.67c0,1.96,1.59,3.54,3.54,3.54h42.05c1.96,0,3.54,1.59,3.54,3.54v8.06c0,1.96-1.59,3.54-3.54,3.54h-62.25c-1.96,0-3.54-1.59-3.54-3.54v-54.69c0-7.8,6.32-14.11,14.12-14.11"/>
        <path class="cls-1" d="m918.82,201.17h-49.43c-8.91,0-16.13-7.22-16.13-16.13v-50.67c0-3.07,2.49-5.55,5.55-5.55h60.95c3.07,0,5.55,2.49,5.55,5.55v60.3c0,3.59-2.91,6.49-6.49,6.49m-19.26-57.2h-20.55c-3.07,0-5.55,2.49-5.55,5.55v30.95c0,3.07,2.49,5.55,5.55,5.55h20.55c3.07,0,5.55-2.49,5.55-5.55v-30.95c0-3.07-2.49-5.55-5.55-5.55"/>
        <path class="cls-1" d="m997.08,201.18h-14.5c-1.21,0-2.3-.73-2.76-1.85l-9.52-23.2c-.46-1.12-1.55-1.85-2.76-1.85h-13.03c-1.65,0-2.98,1.34-2.98,2.98v20.94c0,1.65-1.34,2.98-2.98,2.98h-14.23c-1.65,0-2.98-1.34-2.98-2.98v-66.38c0-1.65,1.34-2.98,2.98-2.98h56.82c5.26,0,9.53,4.27,9.53,9.53v26.38c0,5.27-4.27,9.53-9.53,9.53-.1,0-.17.1-.14.19l8.45,23.34c.59,1.64-.62,3.37-2.36,3.37m-19.6-57.2h-22.97c-1.65,0-2.98,1.34-2.98,2.98v9.18c0,1.65,1.34,2.98,2.98,2.98h22.97c1.65,0,2.98-1.34,2.98-2.98v-9.18c0-1.65-1.34-2.98-2.98-2.98"/>
        <path class="cls-1" d="m766.78,201.18h-63.71c-1.56,0-2.82-1.26-2.82-2.82v-10.85c0-1.56,1.26-2.82,2.82-2.82h43.51c1.56,0,2.82-1.26,2.82-2.82v-4.79c0-1.56-1.26-2.82-2.82-2.82h-34.12c-6.74,0-12.2-5.46-12.2-12.2v-21.04c0-6.74,5.46-12.2,12.2-12.2h54.32c1.56,0,2.82,1.26,2.82,2.82v9.51c0,1.56-1.26,2.82-2.82,2.82h-46.18c-.08,0-.08,15.15,0,15.15h35.6c7.4,0,13.39,5.99,13.39,13.39v25.84c0,1.56-1.26,2.82-2.82,2.82"/>
        <path class="cls-1" d="m778.26,128.83h66.33c1.47,0,2.66,1.19,2.66,2.66v9.83c0,1.47-1.19,2.66-2.66,2.66h-20.4c-1.47,0-2.66,1.19-2.66,2.66v51.88c0,1.47-1.19,2.66-2.66,2.66h-14.88c-1.47,0-2.66-1.19-2.66-2.66v-51.88c0-1.47-1.19-2.66-2.66-2.66h-20.4c-1.47,0-2.66-1.19-2.66-2.66v-9.83c0-1.47,1.19-2.66,2.66-2.66"/>
      </g>
    </g>
  </g>
</svg>